{
	"asset":{
		"generator":"Khronos glTF Blender I/O v3.6.11",
		"version":"2.0"
	},
	"scene":0,
	"scenes":[
		{
			"name":"Scene",
			"nodes":[
				0
			]
		}
	],
	"nodes":[
		{
			"mesh":0,
			"name":"Lamp_Rect",
			"scale":[
				0.19999998807907104,
				0.19999998807907104,
				0.19999998807907104
			],
			"translation":[
				-0.5099999904632568,
				0.20000000298023224,
				-3.499999761581421
			]
		}
	],
	"materials":[
		{
			"doubleSided":true,
			"emissiveFactor":[
				0.5999999642372131,
				0.44834658811410577,
				0.2373236276314472
			],
			"name":"glowy one",
			"pbrMetallicRoughness":{
				"baseColorFactor":[
					0,
					0,
					0,
					1
				]
			}
		},
		{
			"doubleSided":true,
			"name":"Mat_Walls",
			"pbrMetallicRoughness":{
				"baseColorFactor":[
					0.800000011920929,
					0.800000011920929,
					0.800000011920929,
					1
				],
				"metallicFactor":0,
				"roughnessFactor":0.5
			}
		}
	],
	"meshes":[
		{
			"name":"Lamp_Mesh",
			"primitives":[
				{
					"attributes":{
						"POSITION":0,
						"NORMAL":1,
						"TEXCOORD_0":2
					},
					"indices":3,
					"material":0
				},
				{
					"attributes":{
						"POSITION":4,
						"NORMAL":5,
						"TEXCOORD_0":6
					},
					"indices":7,
					"material":1
				}
			]
		}
	],
	"accessors":[
		{
			"bufferView":0,
			"componentType":5126,
			"count":20,
			"max":[
				0.7999998927116394,
				8.5,
				0.8000000715255737
			],
			"min":[
				-0.7999998927116394,
				6.499999523162842,
				-0.8000000715255737
			],
			"type":"VEC3"
		},
		{
			"bufferView":1,
			"componentType":5126,
			"count":20,
			"type":"VEC3"
		},
		{
			"bufferView":2,
			"componentType":5126,
			"count":20,
			"type":"VEC2"
		},
		{
			"bufferView":3,
			"componentType":5123,
			"count":30,
			"type":"SCALAR"
		},
		{
			"bufferView":4,
			"componentType":5126,
			"count":552,
			"max":[
				0.9999999403953552,
				6.499999523162842,
				1.0000001192092896
			],
			"min":[
				-0.9999999403953552,
				-0.09999999403953552,
				-1.0000001192092896
			],
			"type":"VEC3"
		},
		{
			"bufferView":5,
			"componentType":5126,
			"count":552,
			"type":"VEC3"
		},
		{
			"bufferView":6,
			"componentType":5126,
			"count":552,
			"type":"VEC2"
		},
		{
			"bufferView":7,
			"componentType":5123,
			"count":1248,
			"type":"SCALAR"
		}
	],
	"bufferViews":[
		{
			"buffer":0,
			"byteLength":240,
			"byteOffset":0,
			"target":34962
		},
		{
			"buffer":0,
			"byteLength":240,
			"byteOffset":240,
			"target":34962
		},
		{
			"buffer":0,
			"byteLength":160,
			"byteOffset":480,
			"target":34962
		},
		{
			"buffer":0,
			"byteLength":60,
			"byteOffset":640,
			"target":34963
		},
		{
			"buffer":0,
			"byteLength":6624,
			"byteOffset":700,
			"target":34962
		},
		{
			"buffer":0,
			"byteLength":6624,
			"byteOffset":7324,
			"target":34962
		},
		{
			"buffer":0,
			"byteLength":4416,
			"byteOffset":13948,
			"target":34962
		},
		{
			"buffer":0,
			"byteLength":2496,
			"byteOffset":18364,
			"target":34963
		}
	],
	"buffers":[
		{
			"byteLength":20860,
			"uri":"data:application/octet-stream;base64,"
		}
	]
}
