{
	"asset":{
		"generator":"Khronos glTF Blender I/O v3.6.11",
		"version":"2.0"
	},
	"extensionsUsed":[
		"KHR_materials_specular",
		"KHR_materials_ior"
	],
	"scene":0,
	"scenes":[
		{
			"name":"Scene",
			"nodes":[
				0,
				1,
				2,
				3,
				4
			]
		}
	],
	"nodes":[
		{
			"mesh":0,
			"name":"Room",
			"translation":[
				-2,
				1,
				-4
			]
		},
		{
			"mesh":1,
			"name":"TV",
			"rotation":[
				0.7071068286895752,
				0,
				0,
				0.7071068286895752
			],
			"scale":[
				1.2000000476837158,
				1,
				1.2000000476837158
			],
			"translation":[
				-2.299999952316284,
				1.2999999523162842,
				-3.9575002193450928
			]
		},
		{
			"mesh":2,
			"name":"Table",
			"rotation":[
				0,
				-0.7071068286895752,
				0,
				0.7071068286895752
			],
			"translation":[
				-2.3475000858306885,
				0.5133332014083862,
				-2
			]
		},
		{
			"mesh":3,
			"name":"Couch",
			"translation":[
				-2.4000000953674316,
				0.6000000238418579,
				-0.5
			]
		},
		{
			"mesh":4,
			"name":"Shelf",
			"rotation":[
				0,
				-1,
				0,
				1.6292068494294654e-07
			],
			"scale":[
				0.30000001192092896,
				0.30000001192092896,
				0.30000001192092896
			],
			"translation":[
				-0.3099999725818634,
				0.44999998807907104,
				-1.2999999523162842
			]
		}
	],
	"materials":[
		{
			"doubleSided":true,
			"name":"Mat_Floor.001",
			"pbrMetallicRoughness":{
				"metallicFactor":0,
				"roughnessFactor":0.5
			}
		},
		{
			"doubleSided":true,
			"name":"Mat_Walls.001",
			"pbrMetallicRoughness":{
				"baseColorFactor":[
					0.800000011920929,
					0.800000011920929,
					0.800000011920929,
					1
				],
				"metallicFactor":0,
				"roughnessFactor":0.5
			}
		},
		{
			"doubleSided":true,
			"name":"TV_Screen",
			"pbrMetallicRoughness":{
				"baseColorFactor":[
					0,
					0,
					0,
					1
				],
				"metallicFactor":0.06868132203817368,
				"roughnessFactor":0.5
			}
		},
		{
			"doubleSided":true,
			"extensions":{
				"KHR_materials_specular":{
					"specularColorFactor":[
						0,
						0,
						0
					]
				},
				"KHR_materials_ior":{
					"ior":1.4500000476837158
				}
			},
			"name":"TV_Frame",
			"pbrMetallicRoughness":{
				"baseColorFactor":[
					0.23681406676769257,
					0.22013917565345764,
					0.19322676956653595,
					1
				],
				"metallicFactor":0,
				"roughnessFactor":0.5
			}
		},
		{
			"doubleSided":true,
			"name":"Z_Gradient.002",
			"pbrMetallicRoughness":{
				"metallicFactor":0,
				"roughnessFactor":0.5
			}
		},
		{
			"doubleSided":true,
			"name":"Mat_Furn",
			"pbrMetallicRoughness":{
				"metallicFactor":0,
				"roughnessFactor":0.5
			}
		}
	],
	"meshes":[
		{
			"name":"Room_Mesh",
			"primitives":[
				{
					"attributes":{
						"POSITION":0,
						"NORMAL":1,
						"TEXCOORD_0":2
					},
					"indices":3,
					"material":0
				},
				{
					"attributes":{
						"POSITION":4,
						"NORMAL":5,
						"TEXCOORD_0":6
					},
					"indices":7,
					"material":1
				}
			]
		},
		{
			"name":"TV_Mesh",
			"primitives":[
				{
					"attributes":{
						"POSITION":8,
						"NORMAL":9,
						"TEXCOORD_0":10
					},
					"indices":11,
					"material":2
				},
				{
					"attributes":{
						"POSITION":12,
						"NORMAL":13,
						"TEXCOORD_0":14
					},
					"indices":15,
					"material":3
				}
			]
		},
		{
			"name":"Table_Mesh",
			"primitives":[
				{
					"attributes":{
						"POSITION":16,
						"NORMAL":17,
						"TEXCOORD_0":18
					},
					"indices":19,
					"material":4
				}
			]
		},
		{
			"name":"Cube.003",
			"primitives":[
				{
					"attributes":{
						"POSITION":20,
						"NORMAL":21,
						"TEXCOORD_0":22
					},
					"indices":23,
					"material":5
				}
			]
		},
		{
			"name":"Shelf_Mesh",
			"primitives":[
				{
					"attributes":{
						"POSITION":24,
						"NORMAL":25,
						"TEXCOORD_0":26
					},
					"indices":27,
					"material":5
				}
			]
		}
	],
	"accessors":[
		{
			"bufferView":0,
			"componentType":5126,
			"count":22,
			"max":[
				2.200000047683716,
				2,
				4
			],
			"min":[
				-2,
				-1,
				-0.20000004768371582
			],
			"type":"VEC3"
		},
		{
			"bufferView":1,
			"componentType":5126,
			"count":22,
			"type":"VEC3"
		},
		{
			"bufferView":2,
			"componentType":5126,
			"count":22,
			"type":"VEC2"
		},
		{
			"bufferView":3,
			"componentType":5123,
			"count":42,
			"type":"SCALAR"
		},
		{
			"bufferView":4,
			"componentType":5126,
			"count":51,
			"max":[
				2.200000047683716,
				2,
				4
			],
			"min":[
				-2,
				-1,
				-0.20000004768371582
			],
			"type":"VEC3"
		},
		{
			"bufferView":5,
			"componentType":5126,
			"count":51,
			"type":"VEC3"
		},
		{
			"bufferView":6,
			"componentType":5126,
			"count":51,
			"type":"VEC2"
		},
		{
			"bufferView":7,
			"componentType":5123,
			"count":114,
			"type":"SCALAR"
		},
		{
			"bufferView":8,
			"componentType":5126,
			"count":4,
			"max":[
				0.7741169929504395,
				0.007500290870666504,
				0.48382312059402466
			],
			"min":[
				-0.7741169929504395,
				0.007500290870666504,
				-0.4838230311870575
			],
			"type":"VEC3"
		},
		{
			"bufferView":9,
			"componentType":5126,
			"count":4,
			"type":"VEC3"
		},
		{
			"bufferView":10,
			"componentType":5126,
			"count":4,
			"type":"VEC2"
		},
		{
			"bufferView":11,
			"componentType":5123,
			"count":6,
			"type":"SCALAR"
		},
		{
			"bufferView":12,
			"componentType":5126,
			"count":44,
			"max":[
				0.800000011920929,
				0.01750028133392334,
				0.4999999403953552
			],
			"min":[
				-0.800000011920929,
				-0.042499661445617676,
				-0.4999999701976776
			],
			"type":"VEC3"
		},
		{
			"bufferView":13,
			"componentType":5126,
			"count":44,
			"type":"VEC3"
		},
		{
			"bufferView":14,
			"componentType":5126,
			"count":44,
			"type":"VEC2"
		},
		{
			"bufferView":15,
			"componentType":5123,
			"count":78,
			"type":"SCALAR"
		},
		{
			"bufferView":16,
			"componentType":5126,
			"count":196,
			"max":[
				0.5999999642372131,
				0.22666680812835693,
				0.9524999856948853
			],
			"min":[
				-0.6000000238418579,
				-0.3133332133293152,
				-0.9474999904632568
			],
			"type":"VEC3"
		},
		{
			"bufferView":17,
			"componentType":5126,
			"count":196,
			"type":"VEC3"
		},
		{
			"bufferView":18,
			"componentType":5126,
			"count":196,
			"type":"VEC2"
		},
		{
			"bufferView":19,
			"componentType":5123,
			"count":420,
			"type":"SCALAR"
		},
		{
			"bufferView":20,
			"componentType":5126,
			"count":150,
			"max":[
				1,
				0.19999997317790985,
				0.3999999761581421
			],
			"min":[
				-1,
				-0.3999999761581421,
				-0.3999999761581421
			],
			"type":"VEC3"
		},
		{
			"bufferView":21,
			"componentType":5126,
			"count":150,
			"type":"VEC3"
		},
		{
			"bufferView":22,
			"componentType":5126,
			"count":150,
			"type":"VEC2"
		},
		{
			"bufferView":23,
			"componentType":5123,
			"count":342,
			"type":"SCALAR"
		},
		{
			"bufferView":24,
			"componentType":5126,
			"count":260,
			"max":[
				0.8049999475479126,
				2.3999998569488525,
				0.7999993562698364
			],
			"min":[
				-0.7949999570846558,
				-0.7999999523162842,
				-4.000000476837158
			],
			"type":"VEC3"
		},
		{
			"bufferView":25,
			"componentType":5126,
			"count":260,
			"type":"VEC3"
		},
		{
			"bufferView":26,
			"componentType":5126,
			"count":260,
			"type":"VEC2"
		},
		{
			"bufferView":27,
			"componentType":5123,
			"count":462,
			"type":"SCALAR"
		}
	],
	"bufferViews":[
		{
			"buffer":0,
			"byteLength":264,
			"byteOffset":0,
			"target":34962
		},
		{
			"buffer":0,
			"byteLength":264,
			"byteOffset":264,
			"target":34962
		},
		{
			"buffer":0,
			"byteLength":176,
			"byteOffset":528,
			"target":34962
		},
		{
			"buffer":0,
			"byteLength":84,
			"byteOffset":704,
			"target":34963
		},
		{
			"buffer":0,
			"byteLength":612,
			"byteOffset":788,
			"target":34962
		},
		{
			"buffer":0,
			"byteLength":612,
			"byteOffset":1400,
			"target":34962
		},
		{
			"buffer":0,
			"byteLength":408,
			"byteOffset":2012,
			"target":34962
		},
		{
			"buffer":0,
			"byteLength":228,
			"byteOffset":2420,
			"target":34963
		},
		{
			"buffer":0,
			"byteLength":48,
			"byteOffset":2648,
			"target":34962
		},
		{
			"buffer":0,
			"byteLength":48,
			"byteOffset":2696,
			"target":34962
		},
		{
			"buffer":0,
			"byteLength":32,
			"byteOffset":2744,
			"target":34962
		},
		{
			"buffer":0,
			"byteLength":12,
			"byteOffset":2776,
			"target":34963
		},
		{
			"buffer":0,
			"byteLength":528,
			"byteOffset":2788,
			"target":34962
		},
		{
			"buffer":0,
			"byteLength":528,
			"byteOffset":3316,
			"target":34962
		},
		{
			"buffer":0,
			"byteLength":352,
			"byteOffset":3844,
			"target":34962
		},
		{
			"buffer":0,
			"byteLength":156,
			"byteOffset":4196,
			"target":34963
		},
		{
			"buffer":0,
			"byteLength":2352,
			"byteOffset":4352,
			"target":34962
		},
		{
			"buffer":0,
			"byteLength":2352,
			"byteOffset":6704,
			"target":34962
		},
		{
			"buffer":0,
			"byteLength":1568,
			"byteOffset":9056,
			"target":34962
		},
		{
			"buffer":0,
			"byteLength":840,
			"byteOffset":10624,
			"target":34963
		},
		{
			"buffer":0,
			"byteLength":1800,
			"byteOffset":11464,
			"target":34962
		},
		{
			"buffer":0,
			"byteLength":1800,
			"byteOffset":13264,
			"target":34962
		},
		{
			"buffer":0,
			"byteLength":1200,
			"byteOffset":15064,
			"target":34962
		},
		{
			"buffer":0,
			"byteLength":684,
			"byteOffset":16264,
			"target":34963
		},
		{
			"buffer":0,
			"byteLength":3120,
			"byteOffset":16948,
			"target":34962
		},
		{
			"buffer":0,
			"byteLength":3120,
			"byteOffset":20068,
			"target":34962
		},
		{
			"buffer":0,
			"byteLength":2080,
			"byteOffset":23188,
			"target":34962
		},
		{
			"buffer":0,
			"byteLength":924,
			"byteOffset":25268,
			"target":34963
		}
	],
	"buffers":[
		{
			"byteLength":26192,
			"uri":"data:application/octet-stream;base64,"
		}
	]
}
